<?xml version="1.0" encoding="UTF-8"?>
<svg xmlns="http://www.w3.org/2000/svg" xmlns:xlink="http://www.w3.org/1999/xlink" width="150px" height="51px" viewBox="0 0 151 51" version="1.1">
<g id="surface1">
<path style=" stroke:none;fill-rule:nonzero;fill:rgb(10.588235%,28.627451%,59.215686%);fill-opacity:1;" d="M 144.644531 0 L 6.355469 0 C 3.007812 0 0.234375 2.773438 0.234375 6.125 L 0.234375 44.875 C 0.234375 48.226562 3.007812 51 6.355469 51 L 144.644531 51 C 147.992188 51 150.765625 48.226562 150.765625 44.875 L 150.765625 6.125 C 150.765625 2.773438 147.992188 0 144.644531 0 Z M 144.644531 0 "/>
<path style=" stroke:none;fill-rule:nonzero;fill:rgb(94.117647%,94.509804%,95.294118%);fill-opacity:1;" d="M 51.207031 14.160156 L 53.214844 5.261719 L 56.46875 5.261719 C 58 5.261719 58.953125 6.316406 58.953125 7.558594 C 58.953125 8.898438 58 10.621094 55.511719 10.621094 L 53.023438 10.621094 L 52.261719 14.160156 Z M 55.703125 9.570312 C 57.136719 9.570312 57.902344 8.613281 57.902344 7.558594 C 57.902344 6.792969 57.328125 6.125 56.371094 6.125 L 54.078125 6.125 L 53.3125 9.570312 Z M 55.703125 9.570312 "/>
<path style=" stroke:none;fill-rule:nonzero;fill:rgb(94.117647%,94.509804%,95.294118%);fill-opacity:1;" d="M 64.691406 8.613281 L 64.882812 7.558594 L 65.9375 7.558594 L 64.5 14.160156 L 63.546875 14.160156 L 63.738281 13.203125 C 63.164062 13.875 62.492188 14.160156 61.632812 14.160156 C 60.101562 14.160156 59.144531 13.203125 59.144531 11.480469 C 59.144531 9.378906 60.484375 7.367188 62.492188 7.367188 C 63.449219 7.464844 64.214844 7.941406 64.691406 8.613281 Z M 60.101562 11.386719 C 60.101562 12.628906 60.867188 13.300781 61.917969 13.300781 C 62.683594 13.300781 63.449219 12.820312 63.929688 12.246094 L 64.597656 9.378906 C 64.308594 8.804688 63.546875 8.324219 62.683594 8.324219 C 61.058594 8.421875 60.101562 9.855469 60.101562 11.386719 Z M 60.101562 11.386719 "/>
<path style=" stroke:none;fill-rule:nonzero;fill:rgb(94.117647%,94.509804%,95.294118%);fill-opacity:1;" d="M 66.03125 15.789062 C 66.222656 15.882812 66.414062 15.882812 66.703125 15.882812 C 67.082031 15.882812 67.371094 15.691406 67.65625 15.214844 L 68.328125 14.160156 L 66.988281 7.75 L 68.039062 7.75 L 68.996094 13.011719 L 72.34375 7.75 L 73.492188 7.75 L 68.519531 15.5 C 67.945312 16.363281 67.371094 16.839844 66.511719 16.839844 C 66.222656 16.839844 65.9375 16.746094 65.648438 16.648438 Z M 66.03125 15.789062 "/>
<path style=" stroke:none;fill-rule:nonzero;fill:rgb(94.117647%,94.509804%,95.294118%);fill-opacity:1;" d="M 82.097656 14.160156 L 81.523438 8.996094 L 78.65625 14.160156 L 77.699219 14.160156 L 77.03125 7.75 L 78.082031 7.75 L 78.464844 12.917969 L 81.332031 7.75 L 82.195312 7.75 L 82.769531 12.917969 L 85.445312 7.75 L 86.5 7.75 L 82.960938 14.257812 L 82.097656 14.160156 C 82.097656 14.257812 82.097656 14.160156 82.097656 14.160156 Z M 82.097656 14.160156 "/>
<path style=" stroke:none;fill-rule:nonzero;fill:rgb(94.117647%,94.509804%,95.294118%);fill-opacity:1;" d="M 86.308594 14.160156 L 87.742188 7.65625 L 88.792969 7.65625 L 87.359375 14.160156 Z M 88.027344 6.125 C 88.027344 5.644531 88.410156 5.359375 88.792969 5.359375 C 89.175781 5.359375 89.367188 5.644531 89.367188 5.933594 C 89.367188 6.410156 88.984375 6.699219 88.601562 6.699219 C 88.125 6.699219 88.027344 6.507812 88.027344 6.125 Z M 88.027344 6.125 "/>
<path style=" stroke:none;fill-rule:nonzero;fill:rgb(94.117647%,94.509804%,95.294118%);fill-opacity:1;" d="M 89.75 13.203125 C 89.75 13.109375 89.75 12.917969 89.75 12.820312 L 90.707031 8.613281 L 89.652344 8.613281 L 89.84375 7.75 L 90.898438 7.75 L 91.28125 6.027344 L 92.332031 6.027344 L 91.949219 7.75 L 93.289062 7.75 L 93.097656 8.613281 L 91.757812 8.613281 L 90.898438 12.4375 C 90.898438 12.535156 90.898438 12.628906 90.898438 12.726562 C 90.898438 13.109375 91.089844 13.300781 91.566406 13.300781 C 91.855469 13.300781 92.046875 13.203125 92.140625 13.109375 L 92.238281 13.875 C 91.949219 14.066406 91.664062 14.160156 91.28125 14.160156 C 90.324219 14.351562 89.75 13.96875 89.75 13.203125 Z M 89.75 13.203125 "/>
<path style=" stroke:none;fill-rule:nonzero;fill:rgb(94.117647%,94.509804%,95.294118%);fill-opacity:1;" d="M 97.59375 14.160156 L 98.546875 9.953125 C 98.546875 9.855469 98.644531 9.570312 98.644531 9.472656 C 98.644531 8.707031 98.070312 8.421875 97.304688 8.421875 C 96.539062 8.421875 95.773438 8.898438 95.296875 9.472656 L 94.246094 14.160156 L 93.191406 14.160156 L 95.203125 5.261719 L 96.253906 5.261719 L 95.488281 8.707031 C 96.0625 8.132812 96.828125 7.65625 97.785156 7.65625 C 98.929688 7.65625 99.695312 8.230469 99.695312 9.28125 C 99.695312 9.378906 99.695312 9.664062 99.601562 9.855469 L 98.644531 14.351562 L 97.59375 14.351562 Z M 97.59375 14.160156 "/>
<path style=" stroke:none;fill-rule:nonzero;fill:rgb(100%,100%,100%);fill-opacity:1;" d="M 49.679688 33.488281 C 45.375 33.488281 44.226562 31.097656 44.226562 27.175781 C 44.226562 23.25 45.375 20.859375 49.679688 20.859375 L 54.9375 20.859375 L 54.9375 23.441406 L 51.304688 23.441406 C 48.433594 23.441406 47.574219 24.207031 47.574219 27.269531 C 47.574219 30.332031 48.433594 31.097656 51.304688 31.097656 L 55.128906 31.097656 L 55.128906 33.679688 Z M 49.679688 33.488281 "/>
<path style=" stroke:none;fill-rule:nonzero;fill:rgb(100%,100%,100%);fill-opacity:1;" d="M 66.320312 28.707031 C 66.320312 32.628906 64.691406 33.585938 60.964844 33.585938 C 57.234375 33.585938 55.609375 32.628906 55.609375 28.707031 C 55.609375 24.78125 57.234375 23.824219 60.964844 23.824219 C 64.691406 23.824219 66.320312 24.78125 66.320312 28.707031 Z M 60.964844 31.574219 C 62.875 31.574219 63.355469 30.617188 63.355469 28.707031 C 63.355469 26.792969 62.875 25.835938 60.964844 25.835938 C 59.050781 25.835938 58.570312 26.792969 58.570312 28.707031 C 58.570312 30.617188 59.050781 31.574219 60.964844 31.574219 Z M 60.964844 31.574219 "/>
<path style=" stroke:none;fill-rule:nonzero;fill:rgb(100%,100%,100%);fill-opacity:1;" d="M 67.5625 22.867188 L 67.5625 20.761719 L 70.429688 20.761719 L 70.429688 22.867188 Z M 67.5625 23.921875 L 70.429688 23.921875 L 70.429688 33.488281 L 67.5625 33.488281 Z M 67.5625 23.921875 "/>
<path style=" stroke:none;fill-rule:nonzero;fill:rgb(100%,100%,100%);fill-opacity:1;" d="M 71.867188 25.738281 C 71.675781 24.878906 72.34375 24.015625 73.203125 23.921875 C 73.394531 23.921875 73.585938 23.921875 73.683594 23.921875 L 77.605469 23.921875 C 79.898438 23.921875 81.332031 24.972656 81.332031 27.367188 L 81.332031 33.488281 L 78.464844 33.488281 L 78.464844 28.132812 C 78.464844 26.695312 77.890625 26.027344 76.457031 26.027344 L 75.214844 26.027344 C 74.734375 26.027344 74.542969 26.21875 74.542969 26.695312 L 74.542969 33.488281 L 71.675781 33.488281 L 71.675781 25.738281 Z M 71.867188 25.738281 "/>
<path style=" stroke:none;fill-rule:nonzero;fill:rgb(100%,100%,100%);fill-opacity:1;" d="M 82.769531 31 L 89.84375 31 C 90.707031 31 90.707031 30.429688 90.707031 30.140625 C 90.707031 29.757812 90.515625 29.375 89.75 29.089844 L 84.777344 27.558594 C 83.152344 27.078125 82.671875 25.738281 82.671875 24.015625 C 82.671875 22.101562 83.535156 20.761719 85.636719 20.761719 L 93.480469 20.761719 L 93.480469 23.347656 L 86.878906 23.347656 C 86.402344 23.347656 86.019531 23.539062 86.019531 24.207031 C 86.019531 24.6875 86.308594 25.070312 87.070312 25.261719 L 91.566406 26.601562 C 93.480469 27.175781 94.148438 28.132812 94.148438 30.140625 C 94.148438 32.148438 93.382812 33.488281 91.28125 33.488281 L 82.863281 33.488281 Z M 82.769531 31 "/>
<path style=" stroke:none;fill-rule:nonzero;fill:rgb(100%,100%,100%);fill-opacity:1;" d="M 105.050781 31.671875 C 105.148438 32.53125 104.574219 33.394531 103.714844 33.488281 C 103.523438 33.488281 103.425781 33.488281 103.234375 33.488281 L 99.21875 33.488281 C 96.921875 33.488281 95.488281 32.53125 95.488281 30.046875 L 95.488281 23.921875 L 98.355469 23.921875 L 98.355469 29.375 C 98.355469 30.808594 98.929688 31.480469 100.367188 31.480469 L 101.703125 31.480469 C 102.183594 31.480469 102.375 31.289062 102.375 30.808594 L 102.375 23.921875 L 105.242188 23.921875 Z M 105.050781 31.671875 "/>
<path style=" stroke:none;fill-rule:nonzero;fill:rgb(100%,100%,100%);fill-opacity:1;" d="M 106.488281 22.867188 L 106.488281 20.761719 L 109.355469 20.761719 L 109.355469 22.867188 Z M 106.488281 23.921875 L 109.355469 23.921875 L 109.355469 33.488281 L 106.488281 33.488281 Z M 106.488281 23.921875 "/>
<path style=" stroke:none;fill-rule:nonzero;fill:rgb(100%,100%,100%);fill-opacity:1;" d="M 115.09375 33.488281 C 112.988281 33.488281 111.554688 32.628906 111.554688 30.332031 L 111.554688 26.027344 L 110.214844 26.027344 L 110.214844 23.921875 L 111.554688 23.921875 L 111.554688 20.859375 L 114.425781 20.859375 L 114.425781 23.921875 L 117.101562 23.921875 L 117.101562 26.027344 L 114.425781 26.027344 L 114.425781 29.375 C 114.425781 30.808594 115.09375 31.480469 116.625 31.480469 L 117.199219 31.480469 L 117.199219 33.488281 Z M 115.09375 33.488281 "/>
<path style=" stroke:none;fill-rule:nonzero;fill:rgb(100%,100%,100%);fill-opacity:1;" d="M 121.308594 33.488281 C 118.25 33.488281 117.675781 32.148438 117.675781 28.609375 C 117.675781 24.496094 118.726562 23.730469 122.554688 23.730469 C 125.710938 23.730469 127.429688 24.207031 127.429688 27.558594 C 127.429688 28.609375 127.144531 29.566406 125.902344 29.566406 L 120.546875 29.566406 C 120.546875 30.714844 120.925781 31.382812 122.457031 31.382812 L 127.144531 31.382812 L 127.144531 33.488281 Z M 123.988281 27.75 C 124.464844 27.75 124.5625 27.367188 124.5625 27.175781 C 124.5625 26.21875 123.414062 25.929688 122.554688 25.929688 C 121.214844 25.929688 120.546875 26.410156 120.546875 27.75 Z M 123.988281 27.75 "/>
<path style=" stroke:none;fill-rule:nonzero;fill:rgb(100%,100%,100%);fill-opacity:1;" d="M 128.386719 31.480469 L 133.742188 31.480469 C 134.125 31.480469 134.414062 31.382812 134.414062 30.90625 C 134.414062 30.238281 133.265625 30.140625 132.691406 29.949219 L 130.777344 29.375 C 128.960938 28.800781 128.292969 28.132812 128.292969 26.503906 C 128.292969 24.6875 129.152344 23.921875 130.96875 23.921875 L 136.898438 23.921875 L 136.898438 26.027344 L 131.734375 26.027344 C 131.351562 26.027344 130.96875 26.121094 130.96875 26.503906 C 130.96875 26.886719 131.542969 27.175781 132.117188 27.367188 L 134.316406 28.035156 C 135.941406 28.515625 137.1875 29.089844 137.1875 31 C 137.1875 32.628906 136.421875 33.488281 134.699219 33.488281 L 128.386719 33.488281 Z M 128.386719 31.480469 "/>
<path style=" stroke:none;fill-rule:nonzero;fill:rgb(100%,100%,100%);fill-opacity:1;" d="M 13.71875 27.078125 L 13.71875 20.761719 C 13.71875 20.476562 13.71875 20.570312 13.910156 20.570312 C 14.578125 20.761719 15.25 20.667969 15.917969 20.285156 C 16.015625 20.191406 16.203125 20.191406 16.300781 20.285156 C 16.96875 20.667969 17.640625 21.050781 18.308594 21.433594 C 19.074219 21.910156 19.839844 22.292969 20.605469 22.773438 C 20.796875 22.867188 20.890625 22.964844 20.890625 23.15625 C 20.890625 25.738281 20.890625 28.417969 20.890625 31 C 20.890625 31.191406 20.796875 31.289062 20.699219 31.382812 C 19.839844 31.863281 18.980469 32.339844 18.117188 32.820312 L 16.203125 33.871094 C 16.109375 33.96875 16.015625 33.96875 15.917969 33.871094 C 15.632812 33.679688 15.34375 33.488281 15.058594 33.394531 C 14.867188 33.296875 14.578125 33.296875 14.292969 33.394531 C 14.101562 33.394531 14.003906 33.488281 13.8125 33.488281 C 13.621094 33.488281 13.621094 33.488281 13.621094 33.394531 C 13.621094 33.296875 13.621094 33.203125 13.621094 33.105469 Z M 13.71875 27.078125 "/>
<path style=" stroke:none;fill-rule:nonzero;fill:rgb(100%,100%,100%);fill-opacity:1;" d="M 28.160156 38.5625 C 28.160156 39.421875 28.160156 40.285156 28.160156 41.144531 C 28.160156 41.238281 28.0625 41.429688 27.96875 41.429688 C 27.679688 41.527344 27.394531 41.71875 27.203125 42.003906 C 27.011719 42.195312 26.917969 42.386719 26.820312 42.675781 C 26.820312 42.769531 26.726562 42.960938 26.726562 43.058594 C 26.726562 43.152344 26.628906 43.25 26.535156 43.152344 L 25.480469 42.578125 L 22.613281 40.953125 L 20.03125 39.421875 L 17.734375 38.082031 L 15.917969 37.03125 L 15.535156 36.839844 C 15.441406 36.742188 15.34375 36.648438 15.535156 36.550781 C 15.726562 36.457031 15.917969 36.265625 16.015625 36.074219 C 16.203125 35.785156 16.300781 35.5 16.300781 35.117188 C 16.300781 34.734375 16.394531 34.542969 16.683594 34.351562 C 17.832031 33.679688 18.980469 33.011719 20.125 32.4375 L 20.988281 31.863281 C 21.082031 31.765625 21.273438 31.765625 21.371094 31.863281 C 22.324219 32.4375 23.378906 33.011719 24.335938 33.585938 C 25.289062 34.160156 26.246094 34.636719 27.203125 35.210938 C 27.394531 35.308594 27.585938 35.5 27.871094 35.59375 C 27.96875 35.691406 28.0625 35.785156 27.96875 35.882812 C 28.0625 36.839844 28.0625 37.699219 28.160156 38.5625 Z M 28.160156 38.5625 "/>
<path style=" stroke:none;fill-rule:nonzero;fill:rgb(100%,100%,100%);fill-opacity:1;" d="M 28.160156 15.597656 C 28.160156 16.457031 28.160156 17.320312 28.160156 18.179688 C 28.160156 18.371094 28.0625 18.46875 27.96875 18.46875 L 26.152344 19.519531 L 22.804688 21.433594 C 22.421875 21.71875 21.941406 21.910156 21.5625 22.199219 C 21.464844 22.292969 21.273438 22.292969 21.082031 22.199219 C 20.316406 21.71875 19.550781 21.335938 18.882812 20.953125 L 16.585938 19.617188 C 16.492188 19.519531 16.492188 19.425781 16.492188 19.328125 C 16.492188 19.042969 16.492188 18.753906 16.394531 18.371094 C 16.203125 17.988281 16.015625 17.703125 15.726562 17.414062 C 15.535156 17.222656 15.535156 17.222656 15.726562 17.03125 C 16.777344 16.457031 17.925781 15.789062 18.980469 15.214844 C 19.933594 14.640625 20.796875 14.160156 21.753906 13.585938 L 25.195312 11.671875 L 26.628906 10.8125 C 26.820312 10.714844 26.820312 10.714844 26.917969 10.90625 C 27.011719 11.578125 27.488281 12.152344 27.96875 12.34375 C 28.160156 12.34375 28.253906 12.628906 28.253906 12.820312 C 28.160156 13.96875 28.160156 14.734375 28.160156 15.597656 Z M 28.160156 15.597656 "/>
<path style=" stroke:none;fill-rule:nonzero;fill:rgb(100%,100%,100%);fill-opacity:1;" d="M 41.550781 17.320312 L 41.167969 17.128906 L 38.011719 15.308594 L 35.523438 13.875 L 33.039062 12.4375 L 30.550781 11.003906 C 30.359375 10.90625 30.359375 10.90625 30.265625 11.097656 C 30.265625 11.289062 30.167969 11.480469 30.074219 11.671875 C 29.785156 12.152344 29.402344 12.535156 29.019531 12.628906 C 28.925781 12.628906 28.828125 12.820312 28.828125 12.917969 C 28.828125 13.777344 28.828125 14.640625 28.828125 15.597656 C 28.828125 16.457031 28.828125 17.320312 28.828125 18.277344 C 28.828125 18.371094 28.925781 18.5625 29.019531 18.5625 L 29.402344 18.753906 C 30.453125 19.328125 31.507812 19.902344 32.558594 20.570312 C 33.515625 21.144531 34.566406 21.71875 35.523438 22.292969 C 35.621094 22.390625 35.8125 22.390625 35.90625 22.292969 C 36.480469 21.910156 36.957031 21.625 37.53125 21.335938 C 38.488281 20.761719 39.445312 20.191406 40.496094 19.710938 C 40.496094 19.710938 40.59375 19.710938 40.59375 19.617188 L 41.453125 19.136719 C 41.835938 18.945312 42.027344 18.46875 41.929688 17.988281 C 41.929688 17.605469 41.738281 17.414062 41.550781 17.320312 Z M 41.550781 17.320312 "/>
<path style=" stroke:none;fill-rule:nonzero;fill:rgb(100%,100%,100%);fill-opacity:1;" d="M 41.550781 36.839844 L 41.167969 37.03125 L 38.011719 38.847656 L 35.523438 40.285156 L 33.039062 41.71875 L 30.550781 43.152344 C 30.359375 43.25 30.359375 43.25 30.265625 43.058594 C 30.265625 42.867188 30.167969 42.675781 30.074219 42.484375 C 29.785156 42.003906 29.402344 41.621094 29.019531 41.527344 C 28.925781 41.429688 28.925781 41.335938 28.925781 41.144531 C 28.925781 40.285156 28.925781 39.421875 28.925781 38.5625 C 28.925781 37.699219 28.925781 36.839844 28.925781 35.882812 C 28.925781 35.785156 29.019531 35.59375 29.117188 35.59375 L 29.5 35.402344 C 30.550781 34.828125 31.601562 34.253906 32.65625 33.585938 C 33.609375 33.011719 34.664062 32.4375 35.621094 31.863281 C 35.714844 31.765625 35.90625 31.765625 36 31.863281 C 36.574219 32.246094 37.054688 32.53125 37.628906 32.820312 C 38.585938 33.394531 39.539062 33.96875 40.59375 34.445312 C 40.59375 34.445312 40.6875 34.445312 40.6875 34.542969 L 41.550781 35.019531 C 41.929688 35.210938 42.121094 35.691406 42.027344 36.167969 C 41.835938 36.550781 41.738281 36.742188 41.550781 36.839844 Z M 41.550781 36.839844 "/>
<path style=" stroke:none;fill-rule:nonzero;fill:rgb(100%,100%,100%);fill-opacity:1;" d="M 29.117188 21.816406 L 27.871094 21.816406 C 27.777344 21.816406 27.679688 21.910156 27.679688 22.007812 L 27.679688 22.675781 C 27.679688 22.773438 27.585938 22.867188 27.585938 22.867188 L 24.8125 24.304688 C 24.714844 24.304688 24.714844 24.496094 24.714844 24.589844 C 24.714844 24.6875 24.8125 24.6875 24.8125 24.6875 L 26.054688 25.355469 C 26.152344 25.355469 26.152344 25.355469 26.246094 25.355469 L 28.351562 24.207031 C 28.445312 24.207031 28.542969 24.207031 28.542969 24.207031 L 32.175781 26.121094 C 32.367188 26.21875 32.464844 26.121094 32.464844 25.929688 L 32.464844 24.589844 C 32.464844 24.496094 32.367188 24.398438 32.367188 24.398438 L 29.308594 22.773438 C 29.210938 22.773438 29.210938 22.675781 29.210938 22.582031 L 29.210938 21.910156 C 29.308594 21.910156 29.210938 21.816406 29.117188 21.816406 Z M 29.117188 21.816406 "/>
<path style=" stroke:none;fill-rule:nonzero;fill:rgb(100%,100%,100%);fill-opacity:1;" d="M 32.558594 28.417969 L 32.558594 27.175781 C 32.558594 27.078125 32.464844 26.984375 32.464844 26.984375 L 28.636719 24.972656 C 28.542969 24.972656 28.542969 24.972656 28.445312 24.972656 L 27.300781 25.644531 C 27.203125 25.644531 27.203125 25.835938 27.203125 25.929688 C 27.203125 26.027344 27.300781 26.027344 27.300781 26.027344 L 32.273438 28.609375 C 32.464844 28.707031 32.558594 28.609375 32.558594 28.417969 Z M 32.558594 28.417969 "/>
<path style=" stroke:none;fill-rule:nonzero;fill:rgb(100%,100%,100%);fill-opacity:1;" d="M 27.871094 32.246094 L 29.117188 32.246094 C 29.210938 32.246094 29.308594 32.148438 29.308594 32.054688 L 29.308594 31.382812 C 29.308594 31.289062 29.402344 31.191406 29.402344 31.191406 L 32.175781 29.757812 C 32.273438 29.757812 32.273438 29.664062 32.273438 29.472656 C 32.273438 29.375 32.175781 29.375 32.175781 29.375 L 31.027344 28.707031 C 30.933594 28.707031 30.835938 28.707031 30.835938 28.707031 L 28.734375 29.855469 C 28.636719 29.855469 28.636719 29.855469 28.542969 29.855469 L 24.90625 27.941406 C 24.714844 27.84375 24.621094 27.941406 24.621094 28.132812 L 24.621094 29.472656 C 24.621094 29.566406 24.714844 29.664062 24.714844 29.664062 L 27.777344 31.289062 C 27.871094 31.289062 27.871094 31.382812 27.871094 31.480469 L 27.871094 32.246094 C 27.679688 32.246094 27.777344 32.246094 27.871094 32.246094 Z M 27.871094 32.246094 "/>
<path style=" stroke:none;fill-rule:nonzero;fill:rgb(100%,100%,100%);fill-opacity:1;" d="M 24.429688 25.644531 L 24.429688 26.886719 C 24.429688 26.984375 24.527344 27.078125 24.527344 27.078125 L 28.351562 29.089844 C 28.445312 29.089844 28.445312 29.089844 28.542969 29.089844 L 29.691406 28.417969 C 29.785156 28.417969 29.785156 28.226562 29.785156 28.132812 C 29.785156 28.035156 29.691406 28.035156 29.691406 28.035156 L 24.714844 25.453125 C 24.621094 25.355469 24.429688 25.453125 24.429688 25.644531 Z M 24.429688 25.644531 "/>
<path style=" stroke:none;fill-rule:nonzero;fill:rgb(100%,100%,100%);fill-opacity:1;" d="M 29.308594 11.003906 C 29.308594 11.425781 28.964844 11.769531 28.542969 11.769531 C 28.121094 11.769531 27.777344 11.425781 27.777344 11.003906 C 27.777344 10.582031 28.121094 10.238281 28.542969 10.238281 C 28.964844 10.238281 29.308594 10.582031 29.308594 11.003906 Z M 29.308594 11.003906 "/>
<path style=" stroke:none;fill-rule:nonzero;fill:rgb(100%,100%,100%);fill-opacity:1;" d="M 29.308594 43.152344 C 29.308594 43.578125 28.964844 43.917969 28.542969 43.917969 C 28.121094 43.917969 27.777344 43.578125 27.777344 43.152344 C 27.777344 42.730469 28.121094 42.386719 28.542969 42.386719 C 28.964844 42.386719 29.308594 42.730469 29.308594 43.152344 Z M 29.308594 43.152344 "/>
<path style=" stroke:none;fill-rule:nonzero;fill:rgb(100%,100%,100%);fill-opacity:1;" d="M 15.441406 35.210938 C 15.441406 35.636719 15.097656 35.976562 14.675781 35.976562 C 14.253906 35.976562 13.910156 35.636719 13.910156 35.210938 C 13.910156 34.789062 14.253906 34.445312 14.675781 34.445312 C 15.097656 34.445312 15.441406 34.789062 15.441406 35.210938 Z M 15.441406 35.210938 "/>
<path style=" stroke:none;fill-rule:nonzero;fill:rgb(100%,100%,100%);fill-opacity:1;" d="M 15.441406 18.945312 C 15.441406 19.367188 15.097656 19.710938 14.675781 19.710938 C 14.253906 19.710938 13.910156 19.367188 13.910156 18.945312 C 13.910156 18.523438 14.253906 18.179688 14.675781 18.179688 C 15.097656 18.179688 15.441406 18.523438 15.441406 18.945312 Z M 15.441406 18.945312 "/>
</g>
</svg>
