<?xml version="1.0" encoding="UTF-8"?>
<svg xmlns="http://www.w3.org/2000/svg" xmlns:xlink="http://www.w3.org/1999/xlink" width="180px" height="47px" viewBox="0 0 182 47" version="1.1">
<g id="surface1">
<path style=" stroke:none;fill-rule:nonzero;fill:rgb(15.686275%,16.862745%,44.705882%);fill-opacity:1;" d="M 0.6875 30.332031 L 3.410156 18.429688 L 7.714844 18.429688 C 9.738281 18.429688 11.054688 19.839844 11.054688 21.515625 C 11.054688 23.28125 9.738281 25.660156 6.484375 25.660156 L 3.148438 25.660156 L 2.09375 30.421875 L 0.6875 30.421875 Z M 6.660156 24.160156 C 8.59375 24.160156 9.5625 22.839844 9.5625 21.429688 C 9.5625 20.371094 8.769531 19.488281 7.539062 19.488281 L 4.554688 19.488281 L 3.5 24.074219 L 6.660156 24.074219 Z M 6.660156 24.160156 "/>
<path style=" stroke:none;fill-rule:nonzero;fill:rgb(15.686275%,16.862745%,44.705882%);fill-opacity:1;" d="M 18.699219 22.839844 L 18.960938 21.429688 L 20.367188 21.429688 L 18.433594 30.246094 L 17.117188 30.246094 L 17.378906 28.921875 C 16.589844 29.804688 15.710938 30.246094 14.570312 30.246094 C 12.546875 30.246094 11.230469 28.921875 11.230469 26.628906 C 11.230469 23.808594 12.988281 21.074219 15.710938 21.074219 C 17.027344 21.339844 18.082031 21.957031 18.699219 22.839844 Z M 12.546875 26.628906 C 12.546875 28.304688 13.601562 29.1875 15.007812 29.1875 C 16.0625 29.1875 17.027344 28.570312 17.730469 27.777344 L 18.609375 23.898438 C 18.257812 23.101562 17.203125 22.484375 16.0625 22.484375 C 13.867188 22.574219 12.546875 24.515625 12.546875 26.628906 Z M 12.546875 26.628906 "/>
<path style=" stroke:none;fill-rule:nonzero;fill:rgb(15.686275%,16.862745%,44.705882%);fill-opacity:1;" d="M 20.453125 32.449219 C 20.71875 32.539062 20.980469 32.539062 21.332031 32.539062 C 21.859375 32.539062 22.210938 32.273438 22.652344 31.65625 L 23.53125 30.246094 L 21.773438 21.691406 L 23.179688 21.691406 L 24.496094 28.746094 L 28.976562 21.691406 L 30.46875 21.691406 L 23.792969 32.097656 C 23.003906 33.242188 22.300781 33.859375 21.070312 33.859375 C 20.71875 33.859375 20.277344 33.773438 19.925781 33.597656 Z M 20.453125 32.449219 "/>
<path style=" stroke:none;fill-rule:nonzero;fill:rgb(15.686275%,16.862745%,44.705882%);fill-opacity:1;" d="M 41.976562 30.332031 L 41.1875 23.367188 L 37.324219 30.332031 L 36.003906 30.332031 L 35.125 21.78125 L 36.53125 21.78125 L 37.058594 28.746094 L 40.925781 21.78125 L 42.066406 21.78125 L 42.855469 28.746094 L 46.457031 21.78125 L 47.863281 21.78125 L 43.121094 30.511719 L 41.976562 30.332031 C 41.976562 30.421875 41.976562 30.332031 41.976562 30.332031 Z M 41.976562 30.332031 "/>
<path style=" stroke:none;fill-rule:nonzero;fill:rgb(15.686275%,16.862745%,44.705882%);fill-opacity:1;" d="M 47.601562 30.332031 L 49.535156 21.605469 L 50.9375 21.605469 L 49.007812 30.332031 Z M 49.886719 19.574219 C 49.886719 18.957031 50.414062 18.519531 50.9375 18.519531 C 51.464844 18.519531 51.730469 18.871094 51.730469 19.3125 C 51.730469 19.929688 51.203125 20.371094 50.675781 20.371094 C 49.972656 20.28125 49.886719 20.015625 49.886719 19.574219 Z M 49.886719 19.574219 "/>
<path style=" stroke:none;fill-rule:nonzero;fill:rgb(15.686275%,16.862745%,44.705882%);fill-opacity:1;" d="M 52.167969 29.011719 C 52.167969 28.921875 52.167969 28.660156 52.167969 28.480469 L 53.488281 22.839844 L 52.082031 22.839844 L 52.34375 21.691406 L 53.75 21.691406 L 54.277344 19.398438 L 55.683594 19.398438 L 55.15625 21.691406 L 56.914062 21.691406 L 56.648438 22.839844 L 54.894531 22.839844 L 53.75 27.953125 C 53.75 28.042969 53.75 28.21875 53.75 28.304688 C 53.75 28.835938 54.015625 29.097656 54.628906 29.097656 C 54.980469 29.097656 55.242188 29.011719 55.417969 28.835938 L 55.507812 29.894531 C 55.15625 30.15625 54.71875 30.246094 54.191406 30.246094 C 52.960938 30.597656 52.167969 30.070312 52.167969 29.011719 Z M 52.167969 29.011719 "/>
<path style=" stroke:none;fill-rule:nonzero;fill:rgb(15.686275%,16.862745%,44.705882%);fill-opacity:1;" d="M 62.710938 30.332031 L 64.03125 24.691406 C 64.03125 24.601562 64.117188 24.160156 64.117188 24.074219 C 64.117188 23.015625 63.328125 22.664062 62.359375 22.664062 C 61.394531 22.664062 60.339844 23.28125 59.636719 24.074219 L 58.230469 30.332031 L 56.824219 30.332031 L 59.550781 18.429688 L 60.953125 18.429688 L 59.898438 23.015625 C 60.691406 22.222656 61.65625 21.605469 62.976562 21.605469 C 64.46875 21.605469 65.523438 22.398438 65.523438 23.808594 C 65.523438 23.898438 65.523438 24.335938 65.433594 24.601562 L 64.117188 30.597656 L 62.710938 30.597656 Z M 62.710938 30.332031 "/>
<path style=" stroke:none;fill-rule:nonzero;fill:rgb(0%,0%,0%);fill-opacity:1;" d="M 100.925781 30.863281 C 96.972656 30.863281 95.917969 28.660156 95.917969 25.042969 C 95.917969 21.429688 96.972656 19.222656 100.925781 19.222656 L 105.757812 19.222656 L 105.757812 21.605469 L 102.421875 21.605469 C 99.785156 21.605469 98.996094 22.308594 98.996094 25.132812 C 98.996094 27.953125 99.785156 28.660156 102.421875 28.660156 L 105.933594 28.660156 L 105.933594 31.039062 Z M 100.925781 30.863281 "/>
<path style=" stroke:none;fill-rule:nonzero;fill:rgb(0%,0%,0%);fill-opacity:1;" d="M 116.214844 26.453125 C 116.214844 30.070312 114.71875 30.953125 111.292969 30.953125 C 107.867188 30.953125 106.375 30.070312 106.375 26.453125 C 106.375 22.839844 107.867188 21.957031 111.292969 21.957031 C 114.71875 21.957031 116.214844 22.839844 116.214844 26.453125 Z M 111.292969 29.097656 C 113.050781 29.097656 113.488281 28.21875 113.488281 26.453125 C 113.488281 24.691406 113.050781 23.808594 111.292969 23.808594 C 109.535156 23.808594 109.097656 24.691406 109.097656 26.453125 C 109.097656 28.21875 109.535156 29.097656 111.292969 29.097656 Z M 111.292969 29.097656 "/>
<path style=" stroke:none;fill-rule:nonzero;fill:rgb(0%,0%,0%);fill-opacity:1;" d="M 117.355469 21.074219 L 117.355469 19.136719 L 119.992188 19.136719 L 119.992188 21.074219 Z M 117.355469 22.046875 L 119.992188 22.046875 L 119.992188 30.863281 L 117.355469 30.863281 Z M 117.355469 22.046875 "/>
<path style=" stroke:none;fill-rule:nonzero;fill:rgb(0%,0%,0%);fill-opacity:1;" d="M 121.308594 23.71875 C 121.132812 22.925781 121.75 22.132812 122.539062 22.046875 C 122.714844 22.046875 122.890625 22.046875 122.976562 22.046875 L 126.582031 22.046875 C 128.6875 22.046875 130.007812 23.015625 130.007812 25.21875 L 130.007812 30.863281 L 127.371094 30.863281 L 127.371094 25.925781 C 127.371094 24.601562 126.84375 23.984375 125.527344 23.984375 L 124.382812 23.984375 C 123.945312 23.984375 123.769531 24.160156 123.769531 24.601562 L 123.769531 30.863281 L 121.132812 30.863281 L 121.132812 23.71875 Z M 121.308594 23.71875 "/>
<path style=" stroke:none;fill-rule:nonzero;fill:rgb(0%,0%,0%);fill-opacity:1;" d="M 131.324219 28.570312 L 137.824219 28.570312 C 138.617188 28.570312 138.617188 28.042969 138.617188 27.777344 C 138.617188 27.425781 138.441406 27.070312 137.738281 26.808594 L 133.167969 25.394531 C 131.675781 24.953125 131.234375 23.71875 131.234375 22.132812 C 131.234375 20.371094 132.027344 19.136719 133.960938 19.136719 L 141.164062 19.136719 L 141.164062 21.515625 L 135.101562 21.515625 C 134.664062 21.515625 134.3125 21.691406 134.3125 22.308594 C 134.3125 22.75 134.574219 23.101562 135.277344 23.28125 L 139.40625 24.515625 C 141.164062 25.042969 141.777344 25.925781 141.777344 27.777344 C 141.777344 29.628906 141.074219 30.863281 139.144531 30.863281 L 131.410156 30.863281 Z M 131.324219 28.570312 "/>
<path style=" stroke:none;fill-rule:nonzero;fill:rgb(0%,0%,0%);fill-opacity:1;" d="M 151.792969 29.1875 C 151.882812 29.980469 151.355469 30.773438 150.5625 30.863281 C 150.386719 30.863281 150.300781 30.863281 150.125 30.863281 L 146.433594 30.863281 C 144.328125 30.863281 143.007812 29.980469 143.007812 27.6875 L 143.007812 22.046875 L 145.644531 22.046875 L 145.644531 27.070312 C 145.644531 28.394531 146.171875 29.011719 147.488281 29.011719 L 148.71875 29.011719 C 149.15625 29.011719 149.332031 28.835938 149.332031 28.394531 L 149.332031 22.046875 L 151.96875 22.046875 Z M 151.792969 29.1875 "/>
<path style=" stroke:none;fill-rule:nonzero;fill:rgb(0%,0%,0%);fill-opacity:1;" d="M 153.113281 21.074219 L 153.113281 19.136719 L 155.746094 19.136719 L 155.746094 21.074219 Z M 153.113281 22.046875 L 155.746094 22.046875 L 155.746094 30.863281 L 153.113281 30.863281 Z M 153.113281 22.046875 "/>
<path style=" stroke:none;fill-rule:nonzero;fill:rgb(0%,0%,0%);fill-opacity:1;" d="M 161.019531 30.863281 C 159.085938 30.863281 157.769531 30.070312 157.769531 27.953125 L 157.769531 23.984375 L 156.539062 23.984375 L 156.539062 22.046875 L 157.769531 22.046875 L 157.769531 19.222656 L 160.402344 19.222656 L 160.402344 22.046875 L 162.863281 22.046875 L 162.863281 23.984375 L 160.402344 23.984375 L 160.402344 27.070312 C 160.402344 28.394531 161.019531 29.011719 162.425781 29.011719 L 162.949219 29.011719 L 162.949219 30.863281 Z M 161.019531 30.863281 "/>
<path style=" stroke:none;fill-rule:nonzero;fill:rgb(0%,0%,0%);fill-opacity:1;" d="M 166.730469 30.863281 C 163.917969 30.863281 163.390625 29.628906 163.390625 26.367188 C 163.390625 22.574219 164.355469 21.867188 167.871094 21.867188 C 170.769531 21.867188 172.351562 22.308594 172.351562 25.394531 C 172.351562 26.367188 172.085938 27.246094 170.945312 27.246094 L 166.027344 27.246094 C 166.027344 28.304688 166.378906 28.921875 167.78125 28.921875 L 172.085938 28.921875 L 172.085938 30.863281 Z M 169.1875 25.570312 C 169.628906 25.570312 169.714844 25.21875 169.714844 25.042969 C 169.714844 24.160156 168.660156 23.898438 167.871094 23.898438 C 166.640625 23.898438 166.027344 24.335938 166.027344 25.570312 Z M 169.1875 25.570312 "/>
<path style=" stroke:none;fill-rule:nonzero;fill:rgb(0%,0%,0%);fill-opacity:1;" d="M 173.230469 29.011719 L 178.148438 29.011719 C 178.5 29.011719 178.765625 28.921875 178.765625 28.480469 C 178.765625 27.863281 177.710938 27.777344 177.183594 27.601562 L 175.425781 27.070312 C 173.757812 26.542969 173.140625 25.925781 173.140625 24.425781 C 173.140625 22.75 173.933594 22.046875 175.601562 22.046875 L 181.046875 22.046875 L 181.046875 23.984375 L 176.304688 23.984375 C 175.953125 23.984375 175.601562 24.074219 175.601562 24.425781 C 175.601562 24.777344 176.128906 25.042969 176.65625 25.21875 L 178.675781 25.835938 C 180.171875 26.277344 181.3125 26.808594 181.3125 28.570312 C 181.3125 30.070312 180.609375 30.863281 179.027344 30.863281 L 173.230469 30.863281 Z M 173.230469 29.011719 "/>
<path style=" stroke:none;fill-rule:nonzero;fill:rgb(28.235294%,33.72549%,75.686275%);fill-opacity:1;" d="M 72.289062 24.953125 L 72.289062 21.074219 C 72.289062 20.898438 72.289062 20.988281 72.375 20.988281 C 72.816406 21.074219 73.164062 21.074219 73.605469 20.808594 C 73.691406 20.722656 73.78125 20.722656 73.867188 20.808594 C 74.308594 21.074219 74.660156 21.25 75.097656 21.515625 C 75.539062 21.78125 76.066406 22.046875 76.503906 22.308594 C 76.59375 22.398438 76.679688 22.398438 76.679688 22.574219 C 76.679688 24.160156 76.679688 25.75 76.679688 27.335938 C 76.679688 27.425781 76.59375 27.511719 76.59375 27.601562 C 76.066406 27.863281 75.539062 28.21875 75.011719 28.480469 L 73.78125 29.097656 C 73.691406 29.1875 73.691406 29.1875 73.605469 29.097656 C 73.429688 29.011719 73.253906 28.835938 73.078125 28.835938 C 72.992188 28.746094 72.816406 28.746094 72.640625 28.835938 C 72.550781 28.835938 72.464844 28.921875 72.375 28.921875 C 72.289062 28.921875 72.289062 28.921875 72.289062 28.835938 C 72.289062 28.746094 72.289062 28.746094 72.289062 28.660156 Z M 72.289062 24.953125 "/>
<path style=" stroke:none;fill-rule:nonzero;fill:rgb(28.235294%,33.72549%,75.686275%);fill-opacity:1;" d="M 81.074219 32.007812 C 81.074219 32.539062 81.074219 33.066406 81.074219 33.597656 C 81.074219 33.683594 80.984375 33.773438 80.984375 33.773438 C 80.808594 33.859375 80.632812 33.949219 80.546875 34.125 C 80.457031 34.214844 80.371094 34.390625 80.28125 34.566406 C 80.28125 34.65625 80.195312 34.742188 80.195312 34.832031 C 80.195312 34.917969 80.105469 34.917969 80.105469 34.917969 L 79.402344 34.390625 L 77.644531 33.421875 L 76.066406 32.449219 L 74.660156 31.65625 L 73.515625 31.039062 L 73.339844 30.953125 C 73.253906 30.863281 73.253906 30.863281 73.339844 30.773438 C 73.429688 30.6875 73.605469 30.597656 73.605469 30.511719 C 73.691406 30.332031 73.78125 30.15625 73.78125 29.894531 C 73.78125 29.628906 73.867188 29.539062 74.042969 29.453125 C 74.746094 29.011719 75.449219 28.660156 76.152344 28.304688 L 76.679688 27.953125 C 76.769531 27.863281 76.855469 27.863281 76.945312 27.953125 C 77.558594 28.304688 78.171875 28.660156 78.789062 29.011719 C 79.402344 29.363281 79.929688 29.628906 80.546875 29.980469 C 80.632812 30.070312 80.808594 30.15625 80.984375 30.246094 C 81.074219 30.332031 81.074219 30.332031 81.074219 30.421875 C 80.984375 30.953125 80.984375 31.480469 81.074219 32.007812 Z M 81.074219 32.007812 "/>
<path style=" stroke:none;fill-rule:nonzero;fill:rgb(28.235294%,33.72549%,75.686275%);fill-opacity:1;" d="M 81.074219 17.902344 C 81.074219 18.429688 81.074219 18.957031 81.074219 19.488281 C 81.074219 19.574219 80.984375 19.664062 80.984375 19.664062 L 79.84375 20.28125 L 77.820312 21.429688 C 77.558594 21.605469 77.296875 21.691406 77.03125 21.867188 C 76.945312 21.957031 76.855469 21.957031 76.769531 21.867188 C 76.328125 21.605469 75.800781 21.339844 75.449219 21.074219 L 74.042969 20.28125 C 73.957031 20.191406 73.957031 20.191406 73.957031 20.105469 C 73.957031 19.929688 73.957031 19.753906 73.867188 19.488281 C 73.78125 19.222656 73.605469 19.046875 73.429688 18.871094 C 73.339844 18.78125 73.339844 18.78125 73.429688 18.605469 C 74.042969 18.253906 74.746094 17.8125 75.449219 17.460938 C 76.066406 17.105469 76.59375 16.84375 77.121094 16.488281 L 79.226562 15.34375 L 80.105469 14.8125 C 80.195312 14.726562 80.195312 14.726562 80.28125 14.902344 C 80.371094 15.34375 80.632812 15.695312 80.898438 15.785156 C 80.984375 15.785156 81.074219 15.960938 81.074219 16.046875 C 81.074219 16.929688 81.074219 17.371094 81.074219 17.902344 Z M 81.074219 17.902344 "/>
<path style=" stroke:none;fill-rule:nonzero;fill:rgb(28.235294%,33.72549%,75.686275%);fill-opacity:1;" d="M 89.242188 18.957031 L 88.980469 18.871094 L 87.046875 17.722656 L 85.554688 16.84375 L 84.058594 15.960938 L 82.566406 15.078125 C 82.476562 14.992188 82.476562 14.992188 82.390625 15.167969 C 82.390625 15.253906 82.300781 15.429688 82.300781 15.519531 C 82.125 15.785156 81.863281 16.046875 81.6875 16.136719 C 81.601562 16.136719 81.601562 16.226562 81.601562 16.3125 C 81.601562 16.84375 81.601562 17.371094 81.601562 17.988281 C 81.601562 18.519531 81.601562 19.046875 81.601562 19.664062 C 81.601562 19.753906 81.6875 19.839844 81.6875 19.839844 L 81.953125 19.929688 C 82.566406 20.28125 83.269531 20.632812 83.882812 21.074219 C 84.5 21.429688 85.113281 21.78125 85.730469 22.132812 C 85.816406 22.222656 85.90625 22.222656 85.992188 22.132812 C 86.34375 21.867188 86.605469 21.691406 86.957031 21.515625 C 87.574219 21.164062 88.101562 20.808594 88.804688 20.546875 C 88.804688 20.546875 88.890625 20.546875 88.890625 20.457031 L 89.417969 20.191406 C 89.683594 20.105469 89.769531 19.753906 89.683594 19.488281 C 89.417969 19.136719 89.332031 19.046875 89.242188 18.957031 Z M 89.242188 18.957031 "/>
<path style=" stroke:none;fill-rule:nonzero;fill:rgb(28.235294%,33.72549%,75.686275%);fill-opacity:1;" d="M 89.242188 30.953125 L 88.980469 31.039062 L 87.046875 32.1875 L 85.554688 33.066406 L 84.058594 33.949219 L 82.566406 34.832031 C 82.476562 34.917969 82.476562 34.917969 82.390625 34.742188 C 82.390625 34.65625 82.300781 34.476562 82.300781 34.390625 C 82.125 34.125 81.863281 33.859375 81.6875 33.773438 C 81.601562 33.683594 81.601562 33.683594 81.601562 33.507812 C 81.601562 32.980469 81.601562 32.449219 81.601562 31.921875 C 81.601562 31.390625 81.601562 30.863281 81.601562 30.246094 C 81.601562 30.15625 81.6875 30.070312 81.6875 30.070312 L 81.953125 29.980469 C 82.566406 29.628906 83.269531 29.277344 83.882812 28.835938 C 84.5 28.480469 85.113281 28.128906 85.730469 27.777344 C 85.816406 27.6875 85.90625 27.6875 85.992188 27.777344 C 86.34375 28.042969 86.605469 28.21875 86.957031 28.394531 C 87.574219 28.746094 88.101562 29.097656 88.804688 29.363281 C 88.804688 29.363281 88.890625 29.363281 88.890625 29.453125 L 89.417969 29.714844 C 89.683594 29.804688 89.769531 30.15625 89.683594 30.421875 C 89.417969 30.773438 89.332031 30.863281 89.242188 30.953125 Z M 89.242188 30.953125 "/>
<path style=" stroke:none;fill-rule:nonzero;fill:rgb(15.686275%,16.862745%,44.705882%);fill-opacity:1;" d="M 81.601562 21.78125 L 80.808594 21.78125 C 80.722656 21.78125 80.722656 21.867188 80.722656 21.867188 L 80.722656 22.308594 C 80.722656 22.398438 80.632812 22.398438 80.632812 22.398438 L 78.964844 23.28125 C 78.875 23.28125 78.875 23.367188 78.875 23.457031 C 78.875 23.542969 78.964844 23.542969 78.964844 23.542969 L 79.753906 23.984375 C 79.84375 23.984375 79.84375 23.984375 79.84375 23.984375 L 81.160156 23.28125 C 81.25 23.28125 81.25 23.28125 81.25 23.28125 L 83.445312 24.425781 C 83.53125 24.515625 83.621094 24.425781 83.621094 24.335938 L 83.621094 23.542969 C 83.621094 23.457031 83.53125 23.457031 83.53125 23.457031 L 81.6875 22.484375 C 81.601562 22.484375 81.601562 22.398438 81.601562 22.398438 L 81.601562 21.78125 C 81.777344 21.78125 81.6875 21.78125 81.601562 21.78125 Z M 81.601562 21.78125 "/>
<path style=" stroke:none;fill-rule:nonzero;fill:rgb(15.686275%,16.862745%,44.705882%);fill-opacity:1;" d="M 83.707031 25.75 L 83.707031 24.953125 C 83.707031 24.867188 83.621094 24.867188 83.621094 24.867188 L 81.25 23.632812 C 81.160156 23.632812 81.160156 23.632812 81.160156 23.632812 L 80.457031 24.074219 C 80.371094 24.074219 80.371094 24.160156 80.371094 24.25 C 80.371094 24.335938 80.457031 24.335938 80.457031 24.335938 L 83.445312 25.925781 C 83.707031 25.925781 83.707031 25.925781 83.707031 25.75 Z M 83.707031 25.75 "/>
<path style=" stroke:none;fill-rule:nonzero;fill:rgb(15.686275%,16.862745%,44.705882%);fill-opacity:1;" d="M 80.898438 28.128906 L 81.6875 28.128906 C 81.777344 28.128906 81.777344 28.042969 81.777344 28.042969 L 81.777344 27.601562 C 81.777344 27.511719 81.863281 27.511719 81.863281 27.511719 L 83.53125 26.628906 C 83.621094 26.628906 83.621094 26.542969 83.621094 26.453125 C 83.621094 26.367188 83.53125 26.367188 83.53125 26.367188 L 82.828125 25.925781 C 82.742188 25.925781 82.742188 25.925781 82.742188 25.925781 L 81.425781 26.628906 C 81.335938 26.628906 81.335938 26.628906 81.335938 26.628906 L 79.140625 25.484375 C 79.050781 25.394531 78.964844 25.484375 78.964844 25.570312 L 78.964844 26.453125 C 78.964844 26.542969 79.050781 26.542969 79.050781 26.542969 L 80.898438 27.511719 C 80.984375 27.511719 80.984375 27.601562 80.984375 27.601562 L 80.984375 28.128906 C 80.722656 28.128906 80.808594 28.128906 80.898438 28.128906 Z M 80.898438 28.128906 "/>
<path style=" stroke:none;fill-rule:nonzero;fill:rgb(15.686275%,16.862745%,44.705882%);fill-opacity:1;" d="M 78.789062 24.074219 L 78.789062 24.867188 C 78.789062 24.953125 78.875 24.953125 78.875 24.953125 L 81.25 26.191406 C 81.335938 26.191406 81.335938 26.191406 81.335938 26.191406 L 82.039062 25.75 C 82.125 25.75 82.125 25.660156 82.125 25.570312 C 82.125 25.484375 81.953125 25.570312 81.953125 25.570312 L 78.964844 23.984375 C 78.875 23.898438 78.789062 23.984375 78.789062 24.074219 Z M 78.789062 24.074219 "/>
<path style=" stroke:none;fill-rule:nonzero;fill:rgb(0%,0%,0%);fill-opacity:1;" d="M 81.6875 15.167969 C 81.6875 15.410156 81.492188 15.609375 81.25 15.609375 C 81.003906 15.609375 80.808594 15.410156 80.808594 15.167969 C 80.808594 14.921875 81.003906 14.726562 81.25 14.726562 C 81.492188 14.726562 81.6875 14.921875 81.6875 15.167969 Z M 81.6875 15.167969 "/>
<path style=" stroke:none;fill-rule:nonzero;fill:rgb(0%,0%,0%);fill-opacity:1;" d="M 81.6875 34.742188 C 81.6875 34.988281 81.492188 35.183594 81.25 35.183594 C 81.003906 35.183594 80.808594 34.988281 80.808594 34.742188 C 80.808594 34.5 81.003906 34.300781 81.25 34.300781 C 81.492188 34.300781 81.6875 34.5 81.6875 34.742188 Z M 81.6875 34.742188 "/>
<path style=" stroke:none;fill-rule:nonzero;fill:rgb(0%,0%,0%);fill-opacity:1;" d="M 73.253906 29.894531 C 73.253906 30.136719 73.058594 30.332031 72.816406 30.332031 C 72.570312 30.332031 72.375 30.136719 72.375 29.894531 C 72.375 29.648438 72.570312 29.453125 72.816406 29.453125 C 73.058594 29.453125 73.253906 29.648438 73.253906 29.894531 Z M 73.253906 29.894531 "/>
<path style=" stroke:none;fill-rule:nonzero;fill:rgb(0%,0%,0%);fill-opacity:1;" d="M 73.253906 20.015625 C 73.253906 20.261719 73.058594 20.457031 72.816406 20.457031 C 72.570312 20.457031 72.375 20.261719 72.375 20.015625 C 72.375 19.773438 72.570312 19.574219 72.816406 19.574219 C 73.058594 19.574219 73.253906 19.773438 73.253906 20.015625 Z M 73.253906 20.015625 "/>
</g>
</svg>
